<?xml version="1.0" encoding="UTF-8" standalone="no"?>
<!DOCTYPE svg PUBLIC "-//W3C//DTD SVG 1.1//EN"
 "http://www.w3.org/Graphics/SVG/1.1/DTD/svg11.dtd">
<!-- Generated by graphviz version 2.43.0 (0)
 -->
<!-- Title: %3 Pages: 1 -->
<svg width="2681pt" height="238pt"
 viewBox="0.00 0.00 2680.50 237.74" xmlns="http://www.w3.org/2000/svg" xmlns:xlink="http://www.w3.org/1999/xlink">
<g id="graph0" class="graph" transform="scale(1 1) rotate(0) translate(36 201.74)">
<title>%3</title>
<polygon fill="dimgray" stroke="transparent" points="-36,36 -36,-201.74 2644.5,-201.74 2644.5,36 -36,36"/>
<text text-anchor="middle" x="1304.25" y="-150.54" font-family="Helvetica,sans-Serif" font-size="14.00">Sweep&#39;s Plan &amp; Progress</text>
<!-- start -->
<g id="node1" class="node">
<title>start</title>
</g>
<!-- 9685cf44&#45;b6e3&#45;4d8c&#45;9b51&#45;0b7891d01c75 -->
<g id="node3" class="node">
<title>9685cf44&#45;b6e3&#45;4d8c&#45;9b51&#45;0b7891d01c75</title>
<ellipse fill="yellow" stroke="black" cx="220" cy="-99.87" rx="94.09" ry="26.74"/>
<text text-anchor="middle" x="220" y="-103.67" font-family="Helvetica,sans-Serif" font-size="14.00">⋯ Create</text>
<text text-anchor="middle" x="220" y="-88.67" font-family="Helvetica,sans-Serif" font-size="14.00">FastQC_PBMC.sh</text>
</g>
<!-- start&#45;&gt;9685cf44&#45;b6e3&#45;4d8c&#45;9b51&#45;0b7891d01c75 -->
<g id="edge16" class="edge">
<title>start&#45;&gt;9685cf44&#45;b6e3&#45;4d8c&#45;9b51&#45;0b7891d01c75</title>
<path fill="none" stroke="black" d="M74.65,-99.87C78.08,-99.87 94.67,-99.87 115.49,-99.87"/>
<polygon fill="black" stroke="black" points="115.66,-103.37 125.66,-99.87 115.66,-96.37 115.66,-103.37"/>
<text text-anchor="middle" x="100.23" y="-106.67" font-family="Helvetica,sans-Serif" font-size="14.00">Start</text>
</g>
<!-- end -->
<g id="node2" class="node">
<title>end</title>
</g>
<!-- e5c7aa98&#45;93c3&#45;4bfe&#45;ae0f&#45;870ad4aa2f6f -->
<g id="node4" class="node">
<title>e5c7aa98&#45;93c3&#45;4bfe&#45;ae0f&#45;870ad4aa2f6f</title>
<ellipse fill="white" stroke="black" cx="507" cy="-99.87" rx="98.08" ry="26.74"/>
<text text-anchor="middle" x="507" y="-103.67" font-family="Helvetica,sans-Serif" font-size="14.00">▶ Create</text>
<text text-anchor="middle" x="507" y="-88.67" font-family="Helvetica,sans-Serif" font-size="14.00">MultiQC_PBMC.sh</text>
</g>
<!-- 9685cf44&#45;b6e3&#45;4d8c&#45;9b51&#45;0b7891d01c75&#45;&gt;e5c7aa98&#45;93c3&#45;4bfe&#45;ae0f&#45;870ad4aa2f6f -->
<g id="edge2" class="edge">
<title>9685cf44&#45;b6e3&#45;4d8c&#45;9b51&#45;0b7891d01c75&#45;&gt;e5c7aa98&#45;93c3&#45;4bfe&#45;ae0f&#45;870ad4aa2f6f</title>
<path fill="none" stroke="black" d="M314.17,-99.87C342.24,-99.87 370.3,-99.87 398.36,-99.87"/>
<polygon fill="black" stroke="black" points="398.7,-103.37 408.7,-99.87 398.7,-96.37 398.7,-103.37"/>
</g>
<!-- d75cfb47&#45;7d46&#45;4629&#45;83b0&#45;caca3ef6ff6b -->
<g id="node11" class="node">
<title>d75cfb47&#45;7d46&#45;4629&#45;83b0&#45;caca3ef6ff6b</title>
<polygon fill="white" stroke="black" points="324,-36 0,-36 0,0 324,0 324,-36"/>
<text text-anchor="middle" x="162" y="-14.3" font-family="Helvetica,sans-Serif" font-size="14.00">▶ Run GitHub Actions for `FastQC_PBMC.sh`</text>
</g>
<!-- 9685cf44&#45;b6e3&#45;4d8c&#45;9b51&#45;0b7891d01c75&#45;&gt;d75cfb47&#45;7d46&#45;4629&#45;83b0&#45;caca3ef6ff6b -->
<g id="edge1" class="edge">
<title>9685cf44&#45;b6e3&#45;4d8c&#45;9b51&#45;0b7891d01c75&#45;&gt;d75cfb47&#45;7d46&#45;4629&#45;83b0&#45;caca3ef6ff6b</title>
<path fill="none" stroke="black" stroke-dasharray="5,2" d="M201.33,-73.16C194.7,-64.04 187.25,-53.77 180.63,-44.65"/>
<polygon fill="black" stroke="black" points="183.3,-42.37 174.59,-36.34 177.63,-46.48 183.3,-42.37"/>
</g>
<!-- 356bb41d&#45;4dd1&#45;4c82&#45;9ac7&#45;86a35a5741ee -->
<g id="node5" class="node">
<title>356bb41d&#45;4dd1&#45;4c82&#45;9ac7&#45;86a35a5741ee</title>
<ellipse fill="white" stroke="black" cx="846" cy="-99.87" rx="84.71" ry="26.74"/>
<text text-anchor="middle" x="846" y="-103.67" font-family="Helvetica,sans-Serif" font-size="14.00">▶ Create</text>
<text text-anchor="middle" x="846" y="-88.67" font-family="Helvetica,sans-Serif" font-size="14.00">STAR_PBMC.sh</text>
</g>
<!-- e5c7aa98&#45;93c3&#45;4bfe&#45;ae0f&#45;870ad4aa2f6f&#45;&gt;356bb41d&#45;4dd1&#45;4c82&#45;9ac7&#45;86a35a5741ee -->
<g id="edge4" class="edge">
<title>e5c7aa98&#45;93c3&#45;4bfe&#45;ae0f&#45;870ad4aa2f6f&#45;&gt;356bb41d&#45;4dd1&#45;4c82&#45;9ac7&#45;86a35a5741ee</title>
<path fill="none" stroke="black" d="M605.32,-99.87C653.84,-99.87 702.37,-99.87 750.89,-99.87"/>
<polygon fill="black" stroke="black" points="750.92,-103.37 760.92,-99.87 750.92,-96.37 750.92,-103.37"/>
</g>
<!-- 5213cabd&#45;9c75&#45;47c7&#45;8d2d&#45;287c60e50586 -->
<g id="node12" class="node">
<title>5213cabd&#45;9c75&#45;47c7&#45;8d2d&#45;287c60e50586</title>
<polygon fill="white" stroke="black" points="672,-36 342,-36 342,0 672,0 672,-36"/>
<text text-anchor="middle" x="507" y="-14.3" font-family="Helvetica,sans-Serif" font-size="14.00">▶ Run GitHub Actions for `MultiQC_PBMC.sh`</text>
</g>
<!-- e5c7aa98&#45;93c3&#45;4bfe&#45;ae0f&#45;870ad4aa2f6f&#45;&gt;5213cabd&#45;9c75&#45;47c7&#45;8d2d&#45;287c60e50586 -->
<g id="edge3" class="edge">
<title>e5c7aa98&#45;93c3&#45;4bfe&#45;ae0f&#45;870ad4aa2f6f&#45;&gt;5213cabd&#45;9c75&#45;47c7&#45;8d2d&#45;287c60e50586</title>
<path fill="none" stroke="black" stroke-dasharray="5,2" d="M507,-72.72C507,-64.27 507,-54.89 507,-46.36"/>
<polygon fill="black" stroke="black" points="510.5,-46.15 507,-36.15 503.5,-46.15 510.5,-46.15"/>
</g>
<!-- 70ca3413&#45;9d2a&#45;43e0&#45;a292&#45;8237cf12c7e7 -->
<g id="node6" class="node">
<title>70ca3413&#45;9d2a&#45;43e0&#45;a292&#45;8237cf12c7e7</title>
<ellipse fill="white" stroke="black" cx="1177" cy="-99.87" rx="87.86" ry="26.74"/>
<text text-anchor="middle" x="1177" y="-103.67" font-family="Helvetica,sans-Serif" font-size="14.00">▶ Create</text>
<text text-anchor="middle" x="1177" y="-88.67" font-family="Helvetica,sans-Serif" font-size="14.00">RSEM_PBMC.sh</text>
</g>
<!-- 356bb41d&#45;4dd1&#45;4c82&#45;9ac7&#45;86a35a5741ee&#45;&gt;70ca3413&#45;9d2a&#45;43e0&#45;a292&#45;8237cf12c7e7 -->
<g id="edge6" class="edge">
<title>356bb41d&#45;4dd1&#45;4c82&#45;9ac7&#45;86a35a5741ee&#45;&gt;70ca3413&#45;9d2a&#45;43e0&#45;a292&#45;8237cf12c7e7</title>
<path fill="none" stroke="black" d="M931.01,-99.87C980.31,-99.87 1029.6,-99.87 1078.89,-99.87"/>
<polygon fill="black" stroke="black" points="1079.08,-103.37 1089.08,-99.87 1079.08,-96.37 1079.08,-103.37"/>
</g>
<!-- 1ff414d1&#45;c48e&#45;4cf7&#45;a38a&#45;993b01dc3d24 -->
<g id="node13" class="node">
<title>1ff414d1&#45;c48e&#45;4cf7&#45;a38a&#45;993b01dc3d24</title>
<polygon fill="white" stroke="black" points="1001.5,-36 690.5,-36 690.5,0 1001.5,0 1001.5,-36"/>
<text text-anchor="middle" x="846" y="-14.3" font-family="Helvetica,sans-Serif" font-size="14.00">▶ Run GitHub Actions for `STAR_PBMC.sh`</text>
</g>
<!-- 356bb41d&#45;4dd1&#45;4c82&#45;9ac7&#45;86a35a5741ee&#45;&gt;1ff414d1&#45;c48e&#45;4cf7&#45;a38a&#45;993b01dc3d24 -->
<g id="edge5" class="edge">
<title>356bb41d&#45;4dd1&#45;4c82&#45;9ac7&#45;86a35a5741ee&#45;&gt;1ff414d1&#45;c48e&#45;4cf7&#45;a38a&#45;993b01dc3d24</title>
<path fill="none" stroke="black" stroke-dasharray="5,2" d="M846,-72.72C846,-64.27 846,-54.89 846,-46.36"/>
<polygon fill="black" stroke="black" points="849.5,-46.15 846,-36.15 842.5,-46.15 849.5,-46.15"/>
</g>
<!-- bc4e3226&#45;0010&#45;4bcd&#45;b8df&#45;1887e1ccb47c -->
<g id="node7" class="node">
<title>bc4e3226&#45;0010&#45;4bcd&#45;b8df&#45;1887e1ccb47c</title>
<ellipse fill="white" stroke="black" cx="1522" cy="-99.87" rx="103.48" ry="26.74"/>
<text text-anchor="middle" x="1522" y="-103.67" font-family="Helvetica,sans-Serif" font-size="14.00">▶ Create</text>
<text text-anchor="middle" x="1522" y="-88.67" font-family="Helvetica,sans-Serif" font-size="14.00">samtools_PBMC.sh</text>
</g>
<!-- 70ca3413&#45;9d2a&#45;43e0&#45;a292&#45;8237cf12c7e7&#45;&gt;bc4e3226&#45;0010&#45;4bcd&#45;b8df&#45;1887e1ccb47c -->
<g id="edge8" class="edge">
<title>70ca3413&#45;9d2a&#45;43e0&#45;a292&#45;8237cf12c7e7&#45;&gt;bc4e3226&#45;0010&#45;4bcd&#45;b8df&#45;1887e1ccb47c</title>
<path fill="none" stroke="black" d="M1264.93,-99.87C1312.75,-99.87 1360.56,-99.87 1408.37,-99.87"/>
<polygon fill="black" stroke="black" points="1408.57,-103.37 1418.57,-99.87 1408.57,-96.37 1408.57,-103.37"/>
</g>
<!-- 3f9ae9b8&#45;16bc&#45;4301&#45;81fc&#45;1349388907d5 -->
<g id="node14" class="node">
<title>3f9ae9b8&#45;16bc&#45;4301&#45;81fc&#45;1349388907d5</title>
<polygon fill="white" stroke="black" points="1334.5,-36 1019.5,-36 1019.5,0 1334.5,0 1334.5,-36"/>
<text text-anchor="middle" x="1177" y="-14.3" font-family="Helvetica,sans-Serif" font-size="14.00">▶ Run GitHub Actions for `RSEM_PBMC.sh`</text>
</g>
<!-- 70ca3413&#45;9d2a&#45;43e0&#45;a292&#45;8237cf12c7e7&#45;&gt;3f9ae9b8&#45;16bc&#45;4301&#45;81fc&#45;1349388907d5 -->
<g id="edge7" class="edge">
<title>70ca3413&#45;9d2a&#45;43e0&#45;a292&#45;8237cf12c7e7&#45;&gt;3f9ae9b8&#45;16bc&#45;4301&#45;81fc&#45;1349388907d5</title>
<path fill="none" stroke="black" stroke-dasharray="5,2" d="M1177,-72.72C1177,-64.27 1177,-54.89 1177,-46.36"/>
<polygon fill="black" stroke="black" points="1180.5,-46.15 1177,-36.15 1173.5,-46.15 1180.5,-46.15"/>
</g>
<!-- 5f4222fe&#45;85af&#45;4d0d&#45;817d&#45;cb426489950b -->
<g id="node8" class="node">
<title>5f4222fe&#45;85af&#45;4d0d&#45;817d&#45;cb426489950b</title>
<ellipse fill="white" stroke="black" cx="1871" cy="-99.87" rx="93.18" ry="26.74"/>
<text text-anchor="middle" x="1871" y="-103.67" font-family="Helvetica,sans-Serif" font-size="14.00">▶ Create</text>
<text text-anchor="middle" x="1871" y="-88.67" font-family="Helvetica,sans-Serif" font-size="14.00">DESeq2_PBMC.R</text>
</g>
<!-- bc4e3226&#45;0010&#45;4bcd&#45;b8df&#45;1887e1ccb47c&#45;&gt;5f4222fe&#45;85af&#45;4d0d&#45;817d&#45;cb426489950b -->
<g id="edge10" class="edge">
<title>bc4e3226&#45;0010&#45;4bcd&#45;b8df&#45;1887e1ccb47c&#45;&gt;5f4222fe&#45;85af&#45;4d0d&#45;817d&#45;cb426489950b</title>
<path fill="none" stroke="black" d="M1625.27,-99.87C1672.61,-99.87 1719.96,-99.87 1767.31,-99.87"/>
<polygon fill="black" stroke="black" points="1767.41,-103.37 1777.41,-99.87 1767.41,-96.37 1767.41,-103.37"/>
</g>
<!-- 31e04957&#45;769c&#45;4313&#45;a755&#45;684e72fd645b -->
<g id="node15" class="node">
<title>31e04957&#45;769c&#45;4313&#45;a755&#45;684e72fd645b</title>
<polygon fill="white" stroke="black" points="1691,-36 1353,-36 1353,0 1691,0 1691,-36"/>
<text text-anchor="middle" x="1522" y="-14.3" font-family="Helvetica,sans-Serif" font-size="14.00">▶ Run GitHub Actions for `samtools_PBMC.sh`</text>
</g>
<!-- bc4e3226&#45;0010&#45;4bcd&#45;b8df&#45;1887e1ccb47c&#45;&gt;31e04957&#45;769c&#45;4313&#45;a755&#45;684e72fd645b -->
<g id="edge9" class="edge">
<title>bc4e3226&#45;0010&#45;4bcd&#45;b8df&#45;1887e1ccb47c&#45;&gt;31e04957&#45;769c&#45;4313&#45;a755&#45;684e72fd645b</title>
<path fill="none" stroke="black" stroke-dasharray="5,2" d="M1522,-72.72C1522,-64.27 1522,-54.89 1522,-46.36"/>
<polygon fill="black" stroke="black" points="1525.5,-46.15 1522,-36.15 1518.5,-46.15 1525.5,-46.15"/>
</g>
<!-- 86363855&#45;ebfd&#45;48b6&#45;b24c&#45;215a5eee2587 -->
<g id="node9" class="node">
<title>86363855&#45;ebfd&#45;48b6&#45;b24c&#45;215a5eee2587</title>
<ellipse fill="white" stroke="black" cx="2182" cy="-99.87" rx="54.39" ry="26.74"/>
<text text-anchor="middle" x="2182" y="-103.67" font-family="Helvetica,sans-Serif" font-size="14.00">▶ Modify</text>
<text text-anchor="middle" x="2182" y="-88.67" font-family="Helvetica,sans-Serif" font-size="14.00">main.sh</text>
</g>
<!-- 5f4222fe&#45;85af&#45;4d0d&#45;817d&#45;cb426489950b&#45;&gt;86363855&#45;ebfd&#45;48b6&#45;b24c&#45;215a5eee2587 -->
<g id="edge12" class="edge">
<title>5f4222fe&#45;85af&#45;4d0d&#45;817d&#45;cb426489950b&#45;&gt;86363855&#45;ebfd&#45;48b6&#45;b24c&#45;215a5eee2587</title>
<path fill="none" stroke="black" d="M1964.54,-99.87C2015.38,-99.87 2066.21,-99.87 2117.04,-99.87"/>
<polygon fill="black" stroke="black" points="2117.21,-103.37 2127.21,-99.87 2117.21,-96.37 2117.21,-103.37"/>
</g>
<!-- cd67892d&#45;acdf&#45;4e24&#45;b865&#45;964b3a4cb0b2 -->
<g id="node16" class="node">
<title>cd67892d&#45;acdf&#45;4e24&#45;b865&#45;964b3a4cb0b2</title>
<polygon fill="white" stroke="black" points="2032.5,-36 1709.5,-36 1709.5,0 2032.5,0 2032.5,-36"/>
<text text-anchor="middle" x="1871" y="-14.3" font-family="Helvetica,sans-Serif" font-size="14.00">▶ Run GitHub Actions for `DESeq2_PBMC.R`</text>
</g>
<!-- 5f4222fe&#45;85af&#45;4d0d&#45;817d&#45;cb426489950b&#45;&gt;cd67892d&#45;acdf&#45;4e24&#45;b865&#45;964b3a4cb0b2 -->
<g id="edge11" class="edge">
<title>5f4222fe&#45;85af&#45;4d0d&#45;817d&#45;cb426489950b&#45;&gt;cd67892d&#45;acdf&#45;4e24&#45;b865&#45;964b3a4cb0b2</title>
<path fill="none" stroke="black" stroke-dasharray="5,2" d="M1871,-72.72C1871,-64.27 1871,-54.89 1871,-46.36"/>
<polygon fill="black" stroke="black" points="1874.5,-46.15 1871,-36.15 1867.5,-46.15 1874.5,-46.15"/>
</g>
<!-- ef77dad3&#45;4595&#45;4f89&#45;8eac&#45;b91c990d9fe8 -->
<g id="node10" class="node">
<title>ef77dad3&#45;4595&#45;4f89&#45;8eac&#45;b91c990d9fe8</title>
<ellipse fill="white" stroke="black" cx="2402" cy="-99.87" rx="60.62" ry="26.74"/>
<text text-anchor="middle" x="2402" y="-103.67" font-family="Helvetica,sans-Serif" font-size="14.00">▶ Modify</text>
<text text-anchor="middle" x="2402" y="-88.67" font-family="Helvetica,sans-Serif" font-size="14.00">DESeq2.R</text>
</g>
<!-- 86363855&#45;ebfd&#45;48b6&#45;b24c&#45;215a5eee2587&#45;&gt;ef77dad3&#45;4595&#45;4f89&#45;8eac&#45;b91c990d9fe8 -->
<g id="edge14" class="edge">
<title>86363855&#45;ebfd&#45;48b6&#45;b24c&#45;215a5eee2587&#45;&gt;ef77dad3&#45;4595&#45;4f89&#45;8eac&#45;b91c990d9fe8</title>
<path fill="none" stroke="black" d="M2236.57,-99.87C2267.96,-99.87 2299.35,-99.87 2330.74,-99.87"/>
<polygon fill="black" stroke="black" points="2330.93,-103.37 2340.93,-99.87 2330.93,-96.37 2330.93,-103.37"/>
</g>
<!-- ef18db67&#45;81da&#45;4803&#45;947c&#45;99751197dce5 -->
<g id="node17" class="node">
<title>ef18db67&#45;81da&#45;4803&#45;947c&#45;99751197dce5</title>
<polygon fill="white" stroke="black" points="2313.5,-36 2050.5,-36 2050.5,0 2313.5,0 2313.5,-36"/>
<text text-anchor="middle" x="2182" y="-14.3" font-family="Helvetica,sans-Serif" font-size="14.00">▶ Run GitHub Actions for `main.sh`</text>
</g>
<!-- 86363855&#45;ebfd&#45;48b6&#45;b24c&#45;215a5eee2587&#45;&gt;ef18db67&#45;81da&#45;4803&#45;947c&#45;99751197dce5 -->
<g id="edge13" class="edge">
<title>86363855&#45;ebfd&#45;48b6&#45;b24c&#45;215a5eee2587&#45;&gt;ef18db67&#45;81da&#45;4803&#45;947c&#45;99751197dce5</title>
<path fill="none" stroke="black" stroke-dasharray="5,2" d="M2182,-72.72C2182,-64.27 2182,-54.89 2182,-46.36"/>
<polygon fill="black" stroke="black" points="2185.5,-46.15 2182,-36.15 2178.5,-46.15 2185.5,-46.15"/>
</g>
<!-- ef77dad3&#45;4595&#45;4f89&#45;8eac&#45;b91c990d9fe8&#45;&gt;end -->
<g id="edge17" class="edge">
<title>ef77dad3&#45;4595&#45;4f89&#45;8eac&#45;b91c990d9fe8&#45;&gt;end</title>
<path fill="none" stroke="black" d="M2462.89,-99.87C2481.14,-99.87 2499.2,-99.87 2510.23,-99.87"/>
<polygon fill="black" stroke="black" points="2510.26,-103.37 2520.26,-99.87 2510.26,-96.37 2510.26,-103.37"/>
<text text-anchor="middle" x="2491.66" y="-106.67" font-family="Helvetica,sans-Serif" font-size="14.00">Finish</text>
</g>
<!-- c5029730&#45;15b6&#45;4d08&#45;814f&#45;9ed342e85bcd -->
<g id="node18" class="node">
<title>c5029730&#45;15b6&#45;4d08&#45;814f&#45;9ed342e85bcd</title>
<polygon fill="white" stroke="black" points="2608.5,-36 2331.5,-36 2331.5,0 2608.5,0 2608.5,-36"/>
<text text-anchor="middle" x="2470" y="-14.3" font-family="Helvetica,sans-Serif" font-size="14.00">▶ Run GitHub Actions for `DESeq2.R`</text>
</g>
<!-- ef77dad3&#45;4595&#45;4f89&#45;8eac&#45;b91c990d9fe8&#45;&gt;c5029730&#45;15b6&#45;4d08&#45;814f&#45;9ed342e85bcd -->
<g id="edge15" class="edge">
<title>ef77dad3&#45;4595&#45;4f89&#45;8eac&#45;b91c990d9fe8&#45;&gt;c5029730&#45;15b6&#45;4d08&#45;814f&#45;9ed342e85bcd</title>
<path fill="none" stroke="black" stroke-dasharray="5,2" d="M2422.77,-74.47C2431.01,-64.8 2440.48,-53.68 2448.76,-43.95"/>
<polygon fill="black" stroke="black" points="2451.57,-46.04 2455.39,-36.16 2446.24,-41.51 2451.57,-46.04"/>
</g>
</g>
</svg>
