<?xml version="1.0" encoding="UTF-8" standalone="no"?>
<!DOCTYPE svg PUBLIC "-//W3C//DTD SVG 1.1//EN"
 "http://www.w3.org/Graphics/SVG/1.1/DTD/svg11.dtd">
<!-- Generated by graphviz version 2.43.0 (0)
 -->
<!-- Title: %3 Pages: 1 -->
<svg width="2687pt" height="238pt"
 viewBox="0.00 0.00 2686.50 237.74" xmlns="http://www.w3.org/2000/svg" xmlns:xlink="http://www.w3.org/1999/xlink">
<g id="graph0" class="graph" transform="scale(1 1) rotate(0) translate(36 201.74)">
<title>%3</title>
<polygon fill="dimgray" stroke="transparent" points="-36,36 -36,-201.74 2650.5,-201.74 2650.5,36 -36,36"/>
<text text-anchor="middle" x="1307.25" y="-150.54" font-family="Helvetica,sans-Serif" font-size="14.00">Sweep&#39;s Plan &amp; Progress</text>
<!-- start -->
<g id="node1" class="node">
<title>start</title>
</g>
<!-- 9685cf44&#45;b6e3&#45;4d8c&#45;9b51&#45;0b7891d01c75 -->
<g id="node3" class="node">
<title>9685cf44&#45;b6e3&#45;4d8c&#45;9b51&#45;0b7891d01c75</title>
<ellipse fill="#0ee832" stroke="black" cx="223" cy="-99.87" rx="94.09" ry="26.74"/>
<text text-anchor="middle" x="223" y="-103.67" font-family="Helvetica,sans-Serif" font-size="14.00">✓ Create</text>
<text text-anchor="middle" x="223" y="-88.67" font-family="Helvetica,sans-Serif" font-size="14.00">FastQC_PBMC.sh</text>
</g>
<!-- start&#45;&gt;9685cf44&#45;b6e3&#45;4d8c&#45;9b51&#45;0b7891d01c75 -->
<g id="edge16" class="edge">
<title>start&#45;&gt;9685cf44&#45;b6e3&#45;4d8c&#45;9b51&#45;0b7891d01c75</title>
<path fill="none" stroke="black" d="M77.65,-99.87C81.08,-99.87 97.67,-99.87 118.49,-99.87"/>
<polygon fill="black" stroke="black" points="118.66,-103.37 128.66,-99.87 118.66,-96.37 118.66,-103.37"/>
<text text-anchor="middle" x="103.23" y="-106.67" font-family="Helvetica,sans-Serif" font-size="14.00">Start</text>
</g>
<!-- end -->
<g id="node2" class="node">
<title>end</title>
</g>
<!-- e5c7aa98&#45;93c3&#45;4bfe&#45;ae0f&#45;870ad4aa2f6f -->
<g id="node4" class="node">
<title>e5c7aa98&#45;93c3&#45;4bfe&#45;ae0f&#45;870ad4aa2f6f</title>
<ellipse fill="#0ee832" stroke="black" cx="511" cy="-99.87" rx="98.08" ry="26.74"/>
<text text-anchor="middle" x="511" y="-103.67" font-family="Helvetica,sans-Serif" font-size="14.00">✓ Create</text>
<text text-anchor="middle" x="511" y="-88.67" font-family="Helvetica,sans-Serif" font-size="14.00">MultiQC_PBMC.sh</text>
</g>
<!-- 9685cf44&#45;b6e3&#45;4d8c&#45;9b51&#45;0b7891d01c75&#45;&gt;e5c7aa98&#45;93c3&#45;4bfe&#45;ae0f&#45;870ad4aa2f6f -->
<g id="edge2" class="edge">
<title>9685cf44&#45;b6e3&#45;4d8c&#45;9b51&#45;0b7891d01c75&#45;&gt;e5c7aa98&#45;93c3&#45;4bfe&#45;ae0f&#45;870ad4aa2f6f</title>
<path fill="none" stroke="black" d="M317.22,-99.87C345.66,-99.87 374.1,-99.87 402.54,-99.87"/>
<polygon fill="black" stroke="black" points="402.6,-103.37 412.6,-99.87 402.6,-96.37 402.6,-103.37"/>
</g>
<!-- d75cfb47&#45;7d46&#45;4629&#45;83b0&#45;caca3ef6ff6b -->
<g id="node11" class="node">
<title>d75cfb47&#45;7d46&#45;4629&#45;83b0&#45;caca3ef6ff6b</title>
<polygon fill="#0ee832" stroke="black" points="326,-36 0,-36 0,0 326,0 326,-36"/>
<text text-anchor="middle" x="163" y="-14.3" font-family="Helvetica,sans-Serif" font-size="14.00">✓ Run GitHub Actions for `FastQC_PBMC.sh`</text>
</g>
<!-- 9685cf44&#45;b6e3&#45;4d8c&#45;9b51&#45;0b7891d01c75&#45;&gt;d75cfb47&#45;7d46&#45;4629&#45;83b0&#45;caca3ef6ff6b -->
<g id="edge1" class="edge">
<title>9685cf44&#45;b6e3&#45;4d8c&#45;9b51&#45;0b7891d01c75&#45;&gt;d75cfb47&#45;7d46&#45;4629&#45;83b0&#45;caca3ef6ff6b</title>
<path fill="none" stroke="black" stroke-dasharray="5,2" d="M203.69,-73.16C196.76,-63.94 188.96,-53.56 182.06,-44.37"/>
<polygon fill="black" stroke="black" points="184.83,-42.23 176.02,-36.34 179.23,-46.43 184.83,-42.23"/>
</g>
<!-- 356bb41d&#45;4dd1&#45;4c82&#45;9ac7&#45;86a35a5741ee -->
<g id="node5" class="node">
<title>356bb41d&#45;4dd1&#45;4c82&#45;9ac7&#45;86a35a5741ee</title>
<ellipse fill="white" stroke="black" cx="852" cy="-99.87" rx="84.71" ry="26.74"/>
<text text-anchor="middle" x="852" y="-103.67" font-family="Helvetica,sans-Serif" font-size="14.00">▶ Create</text>
<text text-anchor="middle" x="852" y="-88.67" font-family="Helvetica,sans-Serif" font-size="14.00">STAR_PBMC.sh</text>
</g>
<!-- e5c7aa98&#45;93c3&#45;4bfe&#45;ae0f&#45;870ad4aa2f6f&#45;&gt;356bb41d&#45;4dd1&#45;4c82&#45;9ac7&#45;86a35a5741ee -->
<g id="edge4" class="edge">
<title>e5c7aa98&#45;93c3&#45;4bfe&#45;ae0f&#45;870ad4aa2f6f&#45;&gt;356bb41d&#45;4dd1&#45;4c82&#45;9ac7&#45;86a35a5741ee</title>
<path fill="none" stroke="black" d="M609.57,-99.87C658.59,-99.87 707.62,-99.87 756.64,-99.87"/>
<polygon fill="black" stroke="black" points="756.77,-103.37 766.77,-99.87 756.77,-96.37 756.77,-103.37"/>
</g>
<!-- 5213cabd&#45;9c75&#45;47c7&#45;8d2d&#45;287c60e50586 -->
<g id="node12" class="node">
<title>5213cabd&#45;9c75&#45;47c7&#45;8d2d&#45;287c60e50586</title>
<polygon fill="yellow" stroke="black" points="678,-36 344,-36 344,0 678,0 678,-36"/>
<text text-anchor="middle" x="511" y="-14.3" font-family="Helvetica,sans-Serif" font-size="14.00">⋯ Run GitHub Actions for `MultiQC_PBMC.sh`</text>
</g>
<!-- e5c7aa98&#45;93c3&#45;4bfe&#45;ae0f&#45;870ad4aa2f6f&#45;&gt;5213cabd&#45;9c75&#45;47c7&#45;8d2d&#45;287c60e50586 -->
<g id="edge3" class="edge">
<title>e5c7aa98&#45;93c3&#45;4bfe&#45;ae0f&#45;870ad4aa2f6f&#45;&gt;5213cabd&#45;9c75&#45;47c7&#45;8d2d&#45;287c60e50586</title>
<path fill="none" stroke="black" stroke-dasharray="5,2" d="M511,-72.72C511,-64.27 511,-54.89 511,-46.36"/>
<polygon fill="black" stroke="black" points="514.5,-46.15 511,-36.15 507.5,-46.15 514.5,-46.15"/>
</g>
<!-- 70ca3413&#45;9d2a&#45;43e0&#45;a292&#45;8237cf12c7e7 -->
<g id="node6" class="node">
<title>70ca3413&#45;9d2a&#45;43e0&#45;a292&#45;8237cf12c7e7</title>
<ellipse fill="white" stroke="black" cx="1183" cy="-99.87" rx="87.86" ry="26.74"/>
<text text-anchor="middle" x="1183" y="-103.67" font-family="Helvetica,sans-Serif" font-size="14.00">▶ Create</text>
<text text-anchor="middle" x="1183" y="-88.67" font-family="Helvetica,sans-Serif" font-size="14.00">RSEM_PBMC.sh</text>
</g>
<!-- 356bb41d&#45;4dd1&#45;4c82&#45;9ac7&#45;86a35a5741ee&#45;&gt;70ca3413&#45;9d2a&#45;43e0&#45;a292&#45;8237cf12c7e7 -->
<g id="edge6" class="edge">
<title>356bb41d&#45;4dd1&#45;4c82&#45;9ac7&#45;86a35a5741ee&#45;&gt;70ca3413&#45;9d2a&#45;43e0&#45;a292&#45;8237cf12c7e7</title>
<path fill="none" stroke="black" d="M937.01,-99.87C986.31,-99.87 1035.6,-99.87 1084.89,-99.87"/>
<polygon fill="black" stroke="black" points="1085.08,-103.37 1095.08,-99.87 1085.08,-96.37 1085.08,-103.37"/>
</g>
<!-- 1ff414d1&#45;c48e&#45;4cf7&#45;a38a&#45;993b01dc3d24 -->
<g id="node13" class="node">
<title>1ff414d1&#45;c48e&#45;4cf7&#45;a38a&#45;993b01dc3d24</title>
<polygon fill="white" stroke="black" points="1007.5,-36 696.5,-36 696.5,0 1007.5,0 1007.5,-36"/>
<text text-anchor="middle" x="852" y="-14.3" font-family="Helvetica,sans-Serif" font-size="14.00">▶ Run GitHub Actions for `STAR_PBMC.sh`</text>
</g>
<!-- 356bb41d&#45;4dd1&#45;4c82&#45;9ac7&#45;86a35a5741ee&#45;&gt;1ff414d1&#45;c48e&#45;4cf7&#45;a38a&#45;993b01dc3d24 -->
<g id="edge5" class="edge">
<title>356bb41d&#45;4dd1&#45;4c82&#45;9ac7&#45;86a35a5741ee&#45;&gt;1ff414d1&#45;c48e&#45;4cf7&#45;a38a&#45;993b01dc3d24</title>
<path fill="none" stroke="black" stroke-dasharray="5,2" d="M852,-72.72C852,-64.27 852,-54.89 852,-46.36"/>
<polygon fill="black" stroke="black" points="855.5,-46.15 852,-36.15 848.5,-46.15 855.5,-46.15"/>
</g>
<!-- bc4e3226&#45;0010&#45;4bcd&#45;b8df&#45;1887e1ccb47c -->
<g id="node7" class="node">
<title>bc4e3226&#45;0010&#45;4bcd&#45;b8df&#45;1887e1ccb47c</title>
<ellipse fill="white" stroke="black" cx="1528" cy="-99.87" rx="103.48" ry="26.74"/>
<text text-anchor="middle" x="1528" y="-103.67" font-family="Helvetica,sans-Serif" font-size="14.00">▶ Create</text>
<text text-anchor="middle" x="1528" y="-88.67" font-family="Helvetica,sans-Serif" font-size="14.00">samtools_PBMC.sh</text>
</g>
<!-- 70ca3413&#45;9d2a&#45;43e0&#45;a292&#45;8237cf12c7e7&#45;&gt;bc4e3226&#45;0010&#45;4bcd&#45;b8df&#45;1887e1ccb47c -->
<g id="edge8" class="edge">
<title>70ca3413&#45;9d2a&#45;43e0&#45;a292&#45;8237cf12c7e7&#45;&gt;bc4e3226&#45;0010&#45;4bcd&#45;b8df&#45;1887e1ccb47c</title>
<path fill="none" stroke="black" d="M1270.93,-99.87C1318.75,-99.87 1366.56,-99.87 1414.37,-99.87"/>
<polygon fill="black" stroke="black" points="1414.57,-103.37 1424.57,-99.87 1414.57,-96.37 1414.57,-103.37"/>
</g>
<!-- 3f9ae9b8&#45;16bc&#45;4301&#45;81fc&#45;1349388907d5 -->
<g id="node14" class="node">
<title>3f9ae9b8&#45;16bc&#45;4301&#45;81fc&#45;1349388907d5</title>
<polygon fill="white" stroke="black" points="1340.5,-36 1025.5,-36 1025.5,0 1340.5,0 1340.5,-36"/>
<text text-anchor="middle" x="1183" y="-14.3" font-family="Helvetica,sans-Serif" font-size="14.00">▶ Run GitHub Actions for `RSEM_PBMC.sh`</text>
</g>
<!-- 70ca3413&#45;9d2a&#45;43e0&#45;a292&#45;8237cf12c7e7&#45;&gt;3f9ae9b8&#45;16bc&#45;4301&#45;81fc&#45;1349388907d5 -->
<g id="edge7" class="edge">
<title>70ca3413&#45;9d2a&#45;43e0&#45;a292&#45;8237cf12c7e7&#45;&gt;3f9ae9b8&#45;16bc&#45;4301&#45;81fc&#45;1349388907d5</title>
<path fill="none" stroke="black" stroke-dasharray="5,2" d="M1183,-72.72C1183,-64.27 1183,-54.89 1183,-46.36"/>
<polygon fill="black" stroke="black" points="1186.5,-46.15 1183,-36.15 1179.5,-46.15 1186.5,-46.15"/>
</g>
<!-- 5f4222fe&#45;85af&#45;4d0d&#45;817d&#45;cb426489950b -->
<g id="node8" class="node">
<title>5f4222fe&#45;85af&#45;4d0d&#45;817d&#45;cb426489950b</title>
<ellipse fill="white" stroke="black" cx="1877" cy="-99.87" rx="93.18" ry="26.74"/>
<text text-anchor="middle" x="1877" y="-103.67" font-family="Helvetica,sans-Serif" font-size="14.00">▶ Create</text>
<text text-anchor="middle" x="1877" y="-88.67" font-family="Helvetica,sans-Serif" font-size="14.00">DESeq2_PBMC.R</text>
</g>
<!-- bc4e3226&#45;0010&#45;4bcd&#45;b8df&#45;1887e1ccb47c&#45;&gt;5f4222fe&#45;85af&#45;4d0d&#45;817d&#45;cb426489950b -->
<g id="edge10" class="edge">
<title>bc4e3226&#45;0010&#45;4bcd&#45;b8df&#45;1887e1ccb47c&#45;&gt;5f4222fe&#45;85af&#45;4d0d&#45;817d&#45;cb426489950b</title>
<path fill="none" stroke="black" d="M1631.27,-99.87C1678.61,-99.87 1725.96,-99.87 1773.31,-99.87"/>
<polygon fill="black" stroke="black" points="1773.41,-103.37 1783.41,-99.87 1773.41,-96.37 1773.41,-103.37"/>
</g>
<!-- 31e04957&#45;769c&#45;4313&#45;a755&#45;684e72fd645b -->
<g id="node15" class="node">
<title>31e04957&#45;769c&#45;4313&#45;a755&#45;684e72fd645b</title>
<polygon fill="white" stroke="black" points="1697,-36 1359,-36 1359,0 1697,0 1697,-36"/>
<text text-anchor="middle" x="1528" y="-14.3" font-family="Helvetica,sans-Serif" font-size="14.00">▶ Run GitHub Actions for `samtools_PBMC.sh`</text>
</g>
<!-- bc4e3226&#45;0010&#45;4bcd&#45;b8df&#45;1887e1ccb47c&#45;&gt;31e04957&#45;769c&#45;4313&#45;a755&#45;684e72fd645b -->
<g id="edge9" class="edge">
<title>bc4e3226&#45;0010&#45;4bcd&#45;b8df&#45;1887e1ccb47c&#45;&gt;31e04957&#45;769c&#45;4313&#45;a755&#45;684e72fd645b</title>
<path fill="none" stroke="black" stroke-dasharray="5,2" d="M1528,-72.72C1528,-64.27 1528,-54.89 1528,-46.36"/>
<polygon fill="black" stroke="black" points="1531.5,-46.15 1528,-36.15 1524.5,-46.15 1531.5,-46.15"/>
</g>
<!-- 86363855&#45;ebfd&#45;48b6&#45;b24c&#45;215a5eee2587 -->
<g id="node9" class="node">
<title>86363855&#45;ebfd&#45;48b6&#45;b24c&#45;215a5eee2587</title>
<ellipse fill="white" stroke="black" cx="2188" cy="-99.87" rx="54.39" ry="26.74"/>
<text text-anchor="middle" x="2188" y="-103.67" font-family="Helvetica,sans-Serif" font-size="14.00">▶ Modify</text>
<text text-anchor="middle" x="2188" y="-88.67" font-family="Helvetica,sans-Serif" font-size="14.00">main.sh</text>
</g>
<!-- 5f4222fe&#45;85af&#45;4d0d&#45;817d&#45;cb426489950b&#45;&gt;86363855&#45;ebfd&#45;48b6&#45;b24c&#45;215a5eee2587 -->
<g id="edge12" class="edge">
<title>5f4222fe&#45;85af&#45;4d0d&#45;817d&#45;cb426489950b&#45;&gt;86363855&#45;ebfd&#45;48b6&#45;b24c&#45;215a5eee2587</title>
<path fill="none" stroke="black" d="M1970.54,-99.87C2021.38,-99.87 2072.21,-99.87 2123.04,-99.87"/>
<polygon fill="black" stroke="black" points="2123.21,-103.37 2133.21,-99.87 2123.21,-96.37 2123.21,-103.37"/>
</g>
<!-- cd67892d&#45;acdf&#45;4e24&#45;b865&#45;964b3a4cb0b2 -->
<g id="node16" class="node">
<title>cd67892d&#45;acdf&#45;4e24&#45;b865&#45;964b3a4cb0b2</title>
<polygon fill="white" stroke="black" points="2038.5,-36 1715.5,-36 1715.5,0 2038.5,0 2038.5,-36"/>
<text text-anchor="middle" x="1877" y="-14.3" font-family="Helvetica,sans-Serif" font-size="14.00">▶ Run GitHub Actions for `DESeq2_PBMC.R`</text>
</g>
<!-- 5f4222fe&#45;85af&#45;4d0d&#45;817d&#45;cb426489950b&#45;&gt;cd67892d&#45;acdf&#45;4e24&#45;b865&#45;964b3a4cb0b2 -->
<g id="edge11" class="edge">
<title>5f4222fe&#45;85af&#45;4d0d&#45;817d&#45;cb426489950b&#45;&gt;cd67892d&#45;acdf&#45;4e24&#45;b865&#45;964b3a4cb0b2</title>
<path fill="none" stroke="black" stroke-dasharray="5,2" d="M1877,-72.72C1877,-64.27 1877,-54.89 1877,-46.36"/>
<polygon fill="black" stroke="black" points="1880.5,-46.15 1877,-36.15 1873.5,-46.15 1880.5,-46.15"/>
</g>
<!-- ef77dad3&#45;4595&#45;4f89&#45;8eac&#45;b91c990d9fe8 -->
<g id="node10" class="node">
<title>ef77dad3&#45;4595&#45;4f89&#45;8eac&#45;b91c990d9fe8</title>
<ellipse fill="white" stroke="black" cx="2408" cy="-99.87" rx="60.62" ry="26.74"/>
<text text-anchor="middle" x="2408" y="-103.67" font-family="Helvetica,sans-Serif" font-size="14.00">▶ Modify</text>
<text text-anchor="middle" x="2408" y="-88.67" font-family="Helvetica,sans-Serif" font-size="14.00">DESeq2.R</text>
</g>
<!-- 86363855&#45;ebfd&#45;48b6&#45;b24c&#45;215a5eee2587&#45;&gt;ef77dad3&#45;4595&#45;4f89&#45;8eac&#45;b91c990d9fe8 -->
<g id="edge14" class="edge">
<title>86363855&#45;ebfd&#45;48b6&#45;b24c&#45;215a5eee2587&#45;&gt;ef77dad3&#45;4595&#45;4f89&#45;8eac&#45;b91c990d9fe8</title>
<path fill="none" stroke="black" d="M2242.57,-99.87C2273.96,-99.87 2305.35,-99.87 2336.74,-99.87"/>
<polygon fill="black" stroke="black" points="2336.93,-103.37 2346.93,-99.87 2336.93,-96.37 2336.93,-103.37"/>
</g>
<!-- ef18db67&#45;81da&#45;4803&#45;947c&#45;99751197dce5 -->
<g id="node17" class="node">
<title>ef18db67&#45;81da&#45;4803&#45;947c&#45;99751197dce5</title>
<polygon fill="white" stroke="black" points="2319.5,-36 2056.5,-36 2056.5,0 2319.5,0 2319.5,-36"/>
<text text-anchor="middle" x="2188" y="-14.3" font-family="Helvetica,sans-Serif" font-size="14.00">▶ Run GitHub Actions for `main.sh`</text>
</g>
<!-- 86363855&#45;ebfd&#45;48b6&#45;b24c&#45;215a5eee2587&#45;&gt;ef18db67&#45;81da&#45;4803&#45;947c&#45;99751197dce5 -->
<g id="edge13" class="edge">
<title>86363855&#45;ebfd&#45;48b6&#45;b24c&#45;215a5eee2587&#45;&gt;ef18db67&#45;81da&#45;4803&#45;947c&#45;99751197dce5</title>
<path fill="none" stroke="black" stroke-dasharray="5,2" d="M2188,-72.72C2188,-64.27 2188,-54.89 2188,-46.36"/>
<polygon fill="black" stroke="black" points="2191.5,-46.15 2188,-36.15 2184.5,-46.15 2191.5,-46.15"/>
</g>
<!-- ef77dad3&#45;4595&#45;4f89&#45;8eac&#45;b91c990d9fe8&#45;&gt;end -->
<g id="edge17" class="edge">
<title>ef77dad3&#45;4595&#45;4f89&#45;8eac&#45;b91c990d9fe8&#45;&gt;end</title>
<path fill="none" stroke="black" d="M2468.89,-99.87C2487.14,-99.87 2505.2,-99.87 2516.23,-99.87"/>
<polygon fill="black" stroke="black" points="2516.26,-103.37 2526.26,-99.87 2516.26,-96.37 2516.26,-103.37"/>
<text text-anchor="middle" x="2497.66" y="-106.67" font-family="Helvetica,sans-Serif" font-size="14.00">Finish</text>
</g>
<!-- c5029730&#45;15b6&#45;4d08&#45;814f&#45;9ed342e85bcd -->
<g id="node18" class="node">
<title>c5029730&#45;15b6&#45;4d08&#45;814f&#45;9ed342e85bcd</title>
<polygon fill="white" stroke="black" points="2614.5,-36 2337.5,-36 2337.5,0 2614.5,0 2614.5,-36"/>
<text text-anchor="middle" x="2476" y="-14.3" font-family="Helvetica,sans-Serif" font-size="14.00">▶ Run GitHub Actions for `DESeq2.R`</text>
</g>
<!-- ef77dad3&#45;4595&#45;4f89&#45;8eac&#45;b91c990d9fe8&#45;&gt;c5029730&#45;15b6&#45;4d08&#45;814f&#45;9ed342e85bcd -->
<g id="edge15" class="edge">
<title>ef77dad3&#45;4595&#45;4f89&#45;8eac&#45;b91c990d9fe8&#45;&gt;c5029730&#45;15b6&#45;4d08&#45;814f&#45;9ed342e85bcd</title>
<path fill="none" stroke="black" stroke-dasharray="5,2" d="M2428.77,-74.47C2437.01,-64.8 2446.48,-53.68 2454.76,-43.95"/>
<polygon fill="black" stroke="black" points="2457.57,-46.04 2461.39,-36.16 2452.24,-41.51 2457.57,-46.04"/>
</g>
</g>
</svg>
