<?xml version="1.0" encoding="UTF-8" standalone="no"?>
<!DOCTYPE svg PUBLIC "-//W3C//DTD SVG 1.1//EN"
 "http://www.w3.org/Graphics/SVG/1.1/DTD/svg11.dtd">
<!-- Generated by graphviz version 2.43.0 (0)
 -->
<!-- Title: %3 Pages: 1 -->
<svg width="2689pt" height="238pt"
 viewBox="0.00 0.00 2688.50 237.74" xmlns="http://www.w3.org/2000/svg" xmlns:xlink="http://www.w3.org/1999/xlink">
<g id="graph0" class="graph" transform="scale(1 1) rotate(0) translate(36 201.74)">
<title>%3</title>
<polygon fill="dimgray" stroke="transparent" points="-36,36 -36,-201.74 2652.5,-201.74 2652.5,36 -36,36"/>
<text text-anchor="middle" x="1308.25" y="-150.54" font-family="Helvetica,sans-Serif" font-size="14.00">Sweep&#39;s Plan &amp; Progress</text>
<!-- start -->
<g id="node1" class="node">
<title>start</title>
</g>
<!-- 9685cf44&#45;b6e3&#45;4d8c&#45;9b51&#45;0b7891d01c75 -->
<g id="node3" class="node">
<title>9685cf44&#45;b6e3&#45;4d8c&#45;9b51&#45;0b7891d01c75</title>
<ellipse fill="#0ee832" stroke="black" cx="222" cy="-99.87" rx="94.09" ry="26.74"/>
<text text-anchor="middle" x="222" y="-103.67" font-family="Helvetica,sans-Serif" font-size="14.00">✓ Create</text>
<text text-anchor="middle" x="222" y="-88.67" font-family="Helvetica,sans-Serif" font-size="14.00">FastQC_PBMC.sh</text>
</g>
<!-- start&#45;&gt;9685cf44&#45;b6e3&#45;4d8c&#45;9b51&#45;0b7891d01c75 -->
<g id="edge16" class="edge">
<title>start&#45;&gt;9685cf44&#45;b6e3&#45;4d8c&#45;9b51&#45;0b7891d01c75</title>
<path fill="none" stroke="black" d="M76.65,-99.87C80.08,-99.87 96.67,-99.87 117.49,-99.87"/>
<polygon fill="black" stroke="black" points="117.66,-103.37 127.66,-99.87 117.66,-96.37 117.66,-103.37"/>
<text text-anchor="middle" x="102.23" y="-106.67" font-family="Helvetica,sans-Serif" font-size="14.00">Start</text>
</g>
<!-- end -->
<g id="node2" class="node">
<title>end</title>
</g>
<!-- e5c7aa98&#45;93c3&#45;4bfe&#45;ae0f&#45;870ad4aa2f6f -->
<g id="node4" class="node">
<title>e5c7aa98&#45;93c3&#45;4bfe&#45;ae0f&#45;870ad4aa2f6f</title>
<ellipse fill="#0ee832" stroke="black" cx="510" cy="-99.87" rx="98.08" ry="26.74"/>
<text text-anchor="middle" x="510" y="-103.67" font-family="Helvetica,sans-Serif" font-size="14.00">✓ Create</text>
<text text-anchor="middle" x="510" y="-88.67" font-family="Helvetica,sans-Serif" font-size="14.00">MultiQC_PBMC.sh</text>
</g>
<!-- 9685cf44&#45;b6e3&#45;4d8c&#45;9b51&#45;0b7891d01c75&#45;&gt;e5c7aa98&#45;93c3&#45;4bfe&#45;ae0f&#45;870ad4aa2f6f -->
<g id="edge2" class="edge">
<title>9685cf44&#45;b6e3&#45;4d8c&#45;9b51&#45;0b7891d01c75&#45;&gt;e5c7aa98&#45;93c3&#45;4bfe&#45;ae0f&#45;870ad4aa2f6f</title>
<path fill="none" stroke="black" d="M316.22,-99.87C344.66,-99.87 373.1,-99.87 401.54,-99.87"/>
<polygon fill="black" stroke="black" points="401.6,-103.37 411.6,-99.87 401.6,-96.37 401.6,-103.37"/>
</g>
<!-- d75cfb47&#45;7d46&#45;4629&#45;83b0&#45;caca3ef6ff6b -->
<g id="node11" class="node">
<title>d75cfb47&#45;7d46&#45;4629&#45;83b0&#45;caca3ef6ff6b</title>
<polygon fill="#0ee832" stroke="black" points="326,-36 0,-36 0,0 326,0 326,-36"/>
<text text-anchor="middle" x="163" y="-14.3" font-family="Helvetica,sans-Serif" font-size="14.00">✓ Run GitHub Actions for `FastQC_PBMC.sh`</text>
</g>
<!-- 9685cf44&#45;b6e3&#45;4d8c&#45;9b51&#45;0b7891d01c75&#45;&gt;d75cfb47&#45;7d46&#45;4629&#45;83b0&#45;caca3ef6ff6b -->
<g id="edge1" class="edge">
<title>9685cf44&#45;b6e3&#45;4d8c&#45;9b51&#45;0b7891d01c75&#45;&gt;d75cfb47&#45;7d46&#45;4629&#45;83b0&#45;caca3ef6ff6b</title>
<path fill="none" stroke="black" stroke-dasharray="5,2" d="M203.01,-73.16C196.27,-64.04 188.69,-53.77 181.95,-44.65"/>
<polygon fill="black" stroke="black" points="184.56,-42.3 175.81,-36.34 178.93,-46.46 184.56,-42.3"/>
</g>
<!-- 356bb41d&#45;4dd1&#45;4c82&#45;9ac7&#45;86a35a5741ee -->
<g id="node5" class="node">
<title>356bb41d&#45;4dd1&#45;4c82&#45;9ac7&#45;86a35a5741ee</title>
<ellipse fill="#0ee832" stroke="black" cx="851" cy="-99.87" rx="84.71" ry="26.74"/>
<text text-anchor="middle" x="851" y="-103.67" font-family="Helvetica,sans-Serif" font-size="14.00">✓ Create</text>
<text text-anchor="middle" x="851" y="-88.67" font-family="Helvetica,sans-Serif" font-size="14.00">STAR_PBMC.sh</text>
</g>
<!-- e5c7aa98&#45;93c3&#45;4bfe&#45;ae0f&#45;870ad4aa2f6f&#45;&gt;356bb41d&#45;4dd1&#45;4c82&#45;9ac7&#45;86a35a5741ee -->
<g id="edge4" class="edge">
<title>e5c7aa98&#45;93c3&#45;4bfe&#45;ae0f&#45;870ad4aa2f6f&#45;&gt;356bb41d&#45;4dd1&#45;4c82&#45;9ac7&#45;86a35a5741ee</title>
<path fill="none" stroke="black" d="M608.57,-99.87C657.59,-99.87 706.62,-99.87 755.64,-99.87"/>
<polygon fill="black" stroke="black" points="755.77,-103.37 765.77,-99.87 755.77,-96.37 755.77,-103.37"/>
</g>
<!-- 5213cabd&#45;9c75&#45;47c7&#45;8d2d&#45;287c60e50586 -->
<g id="node12" class="node">
<title>5213cabd&#45;9c75&#45;47c7&#45;8d2d&#45;287c60e50586</title>
<polygon fill="#0ee832" stroke="black" points="676,-36 344,-36 344,0 676,0 676,-36"/>
<text text-anchor="middle" x="510" y="-14.3" font-family="Helvetica,sans-Serif" font-size="14.00">✓ Run GitHub Actions for `MultiQC_PBMC.sh`</text>
</g>
<!-- e5c7aa98&#45;93c3&#45;4bfe&#45;ae0f&#45;870ad4aa2f6f&#45;&gt;5213cabd&#45;9c75&#45;47c7&#45;8d2d&#45;287c60e50586 -->
<g id="edge3" class="edge">
<title>e5c7aa98&#45;93c3&#45;4bfe&#45;ae0f&#45;870ad4aa2f6f&#45;&gt;5213cabd&#45;9c75&#45;47c7&#45;8d2d&#45;287c60e50586</title>
<path fill="none" stroke="black" stroke-dasharray="5,2" d="M510,-72.72C510,-64.27 510,-54.89 510,-46.36"/>
<polygon fill="black" stroke="black" points="513.5,-46.15 510,-36.15 506.5,-46.15 513.5,-46.15"/>
</g>
<!-- 70ca3413&#45;9d2a&#45;43e0&#45;a292&#45;8237cf12c7e7 -->
<g id="node6" class="node">
<title>70ca3413&#45;9d2a&#45;43e0&#45;a292&#45;8237cf12c7e7</title>
<ellipse fill="#0ee832" stroke="black" cx="1184" cy="-99.87" rx="87.86" ry="26.74"/>
<text text-anchor="middle" x="1184" y="-103.67" font-family="Helvetica,sans-Serif" font-size="14.00">✓ Create</text>
<text text-anchor="middle" x="1184" y="-88.67" font-family="Helvetica,sans-Serif" font-size="14.00">RSEM_PBMC.sh</text>
</g>
<!-- 356bb41d&#45;4dd1&#45;4c82&#45;9ac7&#45;86a35a5741ee&#45;&gt;70ca3413&#45;9d2a&#45;43e0&#45;a292&#45;8237cf12c7e7 -->
<g id="edge6" class="edge">
<title>356bb41d&#45;4dd1&#45;4c82&#45;9ac7&#45;86a35a5741ee&#45;&gt;70ca3413&#45;9d2a&#45;43e0&#45;a292&#45;8237cf12c7e7</title>
<path fill="none" stroke="black" d="M935.88,-99.87C986,-99.87 1036.13,-99.87 1086.26,-99.87"/>
<polygon fill="black" stroke="black" points="1086.28,-103.37 1096.28,-99.87 1086.28,-96.37 1086.28,-103.37"/>
</g>
<!-- 1ff414d1&#45;c48e&#45;4cf7&#45;a38a&#45;993b01dc3d24 -->
<g id="node13" class="node">
<title>1ff414d1&#45;c48e&#45;4cf7&#45;a38a&#45;993b01dc3d24</title>
<polygon fill="#0ee832" stroke="black" points="1007.5,-36 694.5,-36 694.5,0 1007.5,0 1007.5,-36"/>
<text text-anchor="middle" x="851" y="-14.3" font-family="Helvetica,sans-Serif" font-size="14.00">✓ Run GitHub Actions for `STAR_PBMC.sh`</text>
</g>
<!-- 356bb41d&#45;4dd1&#45;4c82&#45;9ac7&#45;86a35a5741ee&#45;&gt;1ff414d1&#45;c48e&#45;4cf7&#45;a38a&#45;993b01dc3d24 -->
<g id="edge5" class="edge">
<title>356bb41d&#45;4dd1&#45;4c82&#45;9ac7&#45;86a35a5741ee&#45;&gt;1ff414d1&#45;c48e&#45;4cf7&#45;a38a&#45;993b01dc3d24</title>
<path fill="none" stroke="black" stroke-dasharray="5,2" d="M851,-72.72C851,-64.27 851,-54.89 851,-46.36"/>
<polygon fill="black" stroke="black" points="854.5,-46.15 851,-36.15 847.5,-46.15 854.5,-46.15"/>
</g>
<!-- bc4e3226&#45;0010&#45;4bcd&#45;b8df&#45;1887e1ccb47c -->
<g id="node7" class="node">
<title>bc4e3226&#45;0010&#45;4bcd&#45;b8df&#45;1887e1ccb47c</title>
<ellipse fill="#0ee832" stroke="black" cx="1530" cy="-99.87" rx="103.48" ry="26.74"/>
<text text-anchor="middle" x="1530" y="-103.67" font-family="Helvetica,sans-Serif" font-size="14.00">✓ Create</text>
<text text-anchor="middle" x="1530" y="-88.67" font-family="Helvetica,sans-Serif" font-size="14.00">samtools_PBMC.sh</text>
</g>
<!-- 70ca3413&#45;9d2a&#45;43e0&#45;a292&#45;8237cf12c7e7&#45;&gt;bc4e3226&#45;0010&#45;4bcd&#45;b8df&#45;1887e1ccb47c -->
<g id="edge8" class="edge">
<title>70ca3413&#45;9d2a&#45;43e0&#45;a292&#45;8237cf12c7e7&#45;&gt;bc4e3226&#45;0010&#45;4bcd&#45;b8df&#45;1887e1ccb47c</title>
<path fill="none" stroke="black" d="M1271.85,-99.87C1320.02,-99.87 1368.19,-99.87 1416.36,-99.87"/>
<polygon fill="black" stroke="black" points="1416.64,-103.37 1426.64,-99.87 1416.64,-96.37 1416.64,-103.37"/>
</g>
<!-- 3f9ae9b8&#45;16bc&#45;4301&#45;81fc&#45;1349388907d5 -->
<g id="node14" class="node">
<title>3f9ae9b8&#45;16bc&#45;4301&#45;81fc&#45;1349388907d5</title>
<polygon fill="#0ee832" stroke="black" points="1342.5,-36 1025.5,-36 1025.5,0 1342.5,0 1342.5,-36"/>
<text text-anchor="middle" x="1184" y="-14.3" font-family="Helvetica,sans-Serif" font-size="14.00">✓ Run GitHub Actions for `RSEM_PBMC.sh`</text>
</g>
<!-- 70ca3413&#45;9d2a&#45;43e0&#45;a292&#45;8237cf12c7e7&#45;&gt;3f9ae9b8&#45;16bc&#45;4301&#45;81fc&#45;1349388907d5 -->
<g id="edge7" class="edge">
<title>70ca3413&#45;9d2a&#45;43e0&#45;a292&#45;8237cf12c7e7&#45;&gt;3f9ae9b8&#45;16bc&#45;4301&#45;81fc&#45;1349388907d5</title>
<path fill="none" stroke="black" stroke-dasharray="5,2" d="M1184,-72.72C1184,-64.27 1184,-54.89 1184,-46.36"/>
<polygon fill="black" stroke="black" points="1187.5,-46.15 1184,-36.15 1180.5,-46.15 1187.5,-46.15"/>
</g>
<!-- 5f4222fe&#45;85af&#45;4d0d&#45;817d&#45;cb426489950b -->
<g id="node8" class="node">
<title>5f4222fe&#45;85af&#45;4d0d&#45;817d&#45;cb426489950b</title>
<ellipse fill="white" stroke="black" cx="1879" cy="-99.87" rx="93.18" ry="26.74"/>
<text text-anchor="middle" x="1879" y="-103.67" font-family="Helvetica,sans-Serif" font-size="14.00">▶ Create</text>
<text text-anchor="middle" x="1879" y="-88.67" font-family="Helvetica,sans-Serif" font-size="14.00">DESeq2_PBMC.R</text>
</g>
<!-- bc4e3226&#45;0010&#45;4bcd&#45;b8df&#45;1887e1ccb47c&#45;&gt;5f4222fe&#45;85af&#45;4d0d&#45;817d&#45;cb426489950b -->
<g id="edge10" class="edge">
<title>bc4e3226&#45;0010&#45;4bcd&#45;b8df&#45;1887e1ccb47c&#45;&gt;5f4222fe&#45;85af&#45;4d0d&#45;817d&#45;cb426489950b</title>
<path fill="none" stroke="black" d="M1633.27,-99.87C1680.61,-99.87 1727.96,-99.87 1775.31,-99.87"/>
<polygon fill="black" stroke="black" points="1775.41,-103.37 1785.41,-99.87 1775.41,-96.37 1775.41,-103.37"/>
</g>
<!-- 31e04957&#45;769c&#45;4313&#45;a755&#45;684e72fd645b -->
<g id="node15" class="node">
<title>31e04957&#45;769c&#45;4313&#45;a755&#45;684e72fd645b</title>
<polygon fill="#0ee832" stroke="black" points="1699.5,-36 1360.5,-36 1360.5,0 1699.5,0 1699.5,-36"/>
<text text-anchor="middle" x="1530" y="-14.3" font-family="Helvetica,sans-Serif" font-size="14.00">✓ Run GitHub Actions for `samtools_PBMC.sh`</text>
</g>
<!-- bc4e3226&#45;0010&#45;4bcd&#45;b8df&#45;1887e1ccb47c&#45;&gt;31e04957&#45;769c&#45;4313&#45;a755&#45;684e72fd645b -->
<g id="edge9" class="edge">
<title>bc4e3226&#45;0010&#45;4bcd&#45;b8df&#45;1887e1ccb47c&#45;&gt;31e04957&#45;769c&#45;4313&#45;a755&#45;684e72fd645b</title>
<path fill="none" stroke="black" stroke-dasharray="5,2" d="M1530,-72.72C1530,-64.27 1530,-54.89 1530,-46.36"/>
<polygon fill="black" stroke="black" points="1533.5,-46.15 1530,-36.15 1526.5,-46.15 1533.5,-46.15"/>
</g>
<!-- 86363855&#45;ebfd&#45;48b6&#45;b24c&#45;215a5eee2587 -->
<g id="node9" class="node">
<title>86363855&#45;ebfd&#45;48b6&#45;b24c&#45;215a5eee2587</title>
<ellipse fill="white" stroke="black" cx="2190" cy="-99.87" rx="54.39" ry="26.74"/>
<text text-anchor="middle" x="2190" y="-103.67" font-family="Helvetica,sans-Serif" font-size="14.00">▶ Modify</text>
<text text-anchor="middle" x="2190" y="-88.67" font-family="Helvetica,sans-Serif" font-size="14.00">main.sh</text>
</g>
<!-- 5f4222fe&#45;85af&#45;4d0d&#45;817d&#45;cb426489950b&#45;&gt;86363855&#45;ebfd&#45;48b6&#45;b24c&#45;215a5eee2587 -->
<g id="edge12" class="edge">
<title>5f4222fe&#45;85af&#45;4d0d&#45;817d&#45;cb426489950b&#45;&gt;86363855&#45;ebfd&#45;48b6&#45;b24c&#45;215a5eee2587</title>
<path fill="none" stroke="black" d="M1972.54,-99.87C2023.38,-99.87 2074.21,-99.87 2125.04,-99.87"/>
<polygon fill="black" stroke="black" points="2125.21,-103.37 2135.21,-99.87 2125.21,-96.37 2125.21,-103.37"/>
</g>
<!-- cd67892d&#45;acdf&#45;4e24&#45;b865&#45;964b3a4cb0b2 -->
<g id="node16" class="node">
<title>cd67892d&#45;acdf&#45;4e24&#45;b865&#45;964b3a4cb0b2</title>
<polygon fill="white" stroke="black" points="2040.5,-36 1717.5,-36 1717.5,0 2040.5,0 2040.5,-36"/>
<text text-anchor="middle" x="1879" y="-14.3" font-family="Helvetica,sans-Serif" font-size="14.00">▶ Run GitHub Actions for `DESeq2_PBMC.R`</text>
</g>
<!-- 5f4222fe&#45;85af&#45;4d0d&#45;817d&#45;cb426489950b&#45;&gt;cd67892d&#45;acdf&#45;4e24&#45;b865&#45;964b3a4cb0b2 -->
<g id="edge11" class="edge">
<title>5f4222fe&#45;85af&#45;4d0d&#45;817d&#45;cb426489950b&#45;&gt;cd67892d&#45;acdf&#45;4e24&#45;b865&#45;964b3a4cb0b2</title>
<path fill="none" stroke="black" stroke-dasharray="5,2" d="M1879,-72.72C1879,-64.27 1879,-54.89 1879,-46.36"/>
<polygon fill="black" stroke="black" points="1882.5,-46.15 1879,-36.15 1875.5,-46.15 1882.5,-46.15"/>
</g>
<!-- ef77dad3&#45;4595&#45;4f89&#45;8eac&#45;b91c990d9fe8 -->
<g id="node10" class="node">
<title>ef77dad3&#45;4595&#45;4f89&#45;8eac&#45;b91c990d9fe8</title>
<ellipse fill="white" stroke="black" cx="2410" cy="-99.87" rx="60.62" ry="26.74"/>
<text text-anchor="middle" x="2410" y="-103.67" font-family="Helvetica,sans-Serif" font-size="14.00">▶ Modify</text>
<text text-anchor="middle" x="2410" y="-88.67" font-family="Helvetica,sans-Serif" font-size="14.00">DESeq2.R</text>
</g>
<!-- 86363855&#45;ebfd&#45;48b6&#45;b24c&#45;215a5eee2587&#45;&gt;ef77dad3&#45;4595&#45;4f89&#45;8eac&#45;b91c990d9fe8 -->
<g id="edge14" class="edge">
<title>86363855&#45;ebfd&#45;48b6&#45;b24c&#45;215a5eee2587&#45;&gt;ef77dad3&#45;4595&#45;4f89&#45;8eac&#45;b91c990d9fe8</title>
<path fill="none" stroke="black" d="M2244.57,-99.87C2275.96,-99.87 2307.35,-99.87 2338.74,-99.87"/>
<polygon fill="black" stroke="black" points="2338.93,-103.37 2348.93,-99.87 2338.93,-96.37 2338.93,-103.37"/>
</g>
<!-- ef18db67&#45;81da&#45;4803&#45;947c&#45;99751197dce5 -->
<g id="node17" class="node">
<title>ef18db67&#45;81da&#45;4803&#45;947c&#45;99751197dce5</title>
<polygon fill="white" stroke="black" points="2321.5,-36 2058.5,-36 2058.5,0 2321.5,0 2321.5,-36"/>
<text text-anchor="middle" x="2190" y="-14.3" font-family="Helvetica,sans-Serif" font-size="14.00">▶ Run GitHub Actions for `main.sh`</text>
</g>
<!-- 86363855&#45;ebfd&#45;48b6&#45;b24c&#45;215a5eee2587&#45;&gt;ef18db67&#45;81da&#45;4803&#45;947c&#45;99751197dce5 -->
<g id="edge13" class="edge">
<title>86363855&#45;ebfd&#45;48b6&#45;b24c&#45;215a5eee2587&#45;&gt;ef18db67&#45;81da&#45;4803&#45;947c&#45;99751197dce5</title>
<path fill="none" stroke="black" stroke-dasharray="5,2" d="M2190,-72.72C2190,-64.27 2190,-54.89 2190,-46.36"/>
<polygon fill="black" stroke="black" points="2193.5,-46.15 2190,-36.15 2186.5,-46.15 2193.5,-46.15"/>
</g>
<!-- ef77dad3&#45;4595&#45;4f89&#45;8eac&#45;b91c990d9fe8&#45;&gt;end -->
<g id="edge17" class="edge">
<title>ef77dad3&#45;4595&#45;4f89&#45;8eac&#45;b91c990d9fe8&#45;&gt;end</title>
<path fill="none" stroke="black" d="M2470.89,-99.87C2489.14,-99.87 2507.2,-99.87 2518.23,-99.87"/>
<polygon fill="black" stroke="black" points="2518.26,-103.37 2528.26,-99.87 2518.26,-96.37 2518.26,-103.37"/>
<text text-anchor="middle" x="2499.66" y="-106.67" font-family="Helvetica,sans-Serif" font-size="14.00">Finish</text>
</g>
<!-- c5029730&#45;15b6&#45;4d08&#45;814f&#45;9ed342e85bcd -->
<g id="node18" class="node">
<title>c5029730&#45;15b6&#45;4d08&#45;814f&#45;9ed342e85bcd</title>
<polygon fill="white" stroke="black" points="2616.5,-36 2339.5,-36 2339.5,0 2616.5,0 2616.5,-36"/>
<text text-anchor="middle" x="2478" y="-14.3" font-family="Helvetica,sans-Serif" font-size="14.00">▶ Run GitHub Actions for `DESeq2.R`</text>
</g>
<!-- ef77dad3&#45;4595&#45;4f89&#45;8eac&#45;b91c990d9fe8&#45;&gt;c5029730&#45;15b6&#45;4d08&#45;814f&#45;9ed342e85bcd -->
<g id="edge15" class="edge">
<title>ef77dad3&#45;4595&#45;4f89&#45;8eac&#45;b91c990d9fe8&#45;&gt;c5029730&#45;15b6&#45;4d08&#45;814f&#45;9ed342e85bcd</title>
<path fill="none" stroke="black" stroke-dasharray="5,2" d="M2430.77,-74.47C2439.01,-64.8 2448.48,-53.68 2456.76,-43.95"/>
<polygon fill="black" stroke="black" points="2459.57,-46.04 2463.39,-36.16 2454.24,-41.51 2459.57,-46.04"/>
</g>
</g>
</svg>
