<?xml version="1.0" encoding="UTF-8" standalone="no"?>
<!DOCTYPE svg PUBLIC "-//W3C//DTD SVG 1.1//EN"
 "http://www.w3.org/Graphics/SVG/1.1/DTD/svg11.dtd">
<!-- Generated by graphviz version 2.43.0 (0)
 -->
<!-- Title: %3 Pages: 1 -->
<svg width="2683pt" height="238pt"
 viewBox="0.00 0.00 2682.50 237.74" xmlns="http://www.w3.org/2000/svg" xmlns:xlink="http://www.w3.org/1999/xlink">
<g id="graph0" class="graph" transform="scale(1 1) rotate(0) translate(36 201.74)">
<title>%3</title>
<polygon fill="dimgray" stroke="transparent" points="-36,36 -36,-201.74 2646.5,-201.74 2646.5,36 -36,36"/>
<text text-anchor="middle" x="1305.25" y="-150.54" font-family="Helvetica,sans-Serif" font-size="14.00">Sweep&#39;s Plan &amp; Progress</text>
<!-- start -->
<g id="node1" class="node">
<title>start</title>
</g>
<!-- 9685cf44&#45;b6e3&#45;4d8c&#45;9b51&#45;0b7891d01c75 -->
<g id="node3" class="node">
<title>9685cf44&#45;b6e3&#45;4d8c&#45;9b51&#45;0b7891d01c75</title>
<ellipse fill="#0ee832" stroke="black" cx="222" cy="-99.87" rx="94.09" ry="26.74"/>
<text text-anchor="middle" x="222" y="-103.67" font-family="Helvetica,sans-Serif" font-size="14.00">✓ Create</text>
<text text-anchor="middle" x="222" y="-88.67" font-family="Helvetica,sans-Serif" font-size="14.00">FastQC_PBMC.sh</text>
</g>
<!-- start&#45;&gt;9685cf44&#45;b6e3&#45;4d8c&#45;9b51&#45;0b7891d01c75 -->
<g id="edge16" class="edge">
<title>start&#45;&gt;9685cf44&#45;b6e3&#45;4d8c&#45;9b51&#45;0b7891d01c75</title>
<path fill="none" stroke="black" d="M76.65,-99.87C80.08,-99.87 96.67,-99.87 117.49,-99.87"/>
<polygon fill="black" stroke="black" points="117.66,-103.37 127.66,-99.87 117.66,-96.37 117.66,-103.37"/>
<text text-anchor="middle" x="102.23" y="-106.67" font-family="Helvetica,sans-Serif" font-size="14.00">Start</text>
</g>
<!-- end -->
<g id="node2" class="node">
<title>end</title>
</g>
<!-- e5c7aa98&#45;93c3&#45;4bfe&#45;ae0f&#45;870ad4aa2f6f -->
<g id="node4" class="node">
<title>e5c7aa98&#45;93c3&#45;4bfe&#45;ae0f&#45;870ad4aa2f6f</title>
<ellipse fill="white" stroke="black" cx="509" cy="-99.87" rx="98.08" ry="26.74"/>
<text text-anchor="middle" x="509" y="-103.67" font-family="Helvetica,sans-Serif" font-size="14.00">▶ Create</text>
<text text-anchor="middle" x="509" y="-88.67" font-family="Helvetica,sans-Serif" font-size="14.00">MultiQC_PBMC.sh</text>
</g>
<!-- 9685cf44&#45;b6e3&#45;4d8c&#45;9b51&#45;0b7891d01c75&#45;&gt;e5c7aa98&#45;93c3&#45;4bfe&#45;ae0f&#45;870ad4aa2f6f -->
<g id="edge2" class="edge">
<title>9685cf44&#45;b6e3&#45;4d8c&#45;9b51&#45;0b7891d01c75&#45;&gt;e5c7aa98&#45;93c3&#45;4bfe&#45;ae0f&#45;870ad4aa2f6f</title>
<path fill="none" stroke="black" d="M316.17,-99.87C344.24,-99.87 372.3,-99.87 400.36,-99.87"/>
<polygon fill="black" stroke="black" points="400.7,-103.37 410.7,-99.87 400.7,-96.37 400.7,-103.37"/>
</g>
<!-- d75cfb47&#45;7d46&#45;4629&#45;83b0&#45;caca3ef6ff6b -->
<g id="node11" class="node">
<title>d75cfb47&#45;7d46&#45;4629&#45;83b0&#45;caca3ef6ff6b</title>
<polygon fill="#0ee832" stroke="black" points="326,-36 0,-36 0,0 326,0 326,-36"/>
<text text-anchor="middle" x="163" y="-14.3" font-family="Helvetica,sans-Serif" font-size="14.00">✓ Run GitHub Actions for `FastQC_PBMC.sh`</text>
</g>
<!-- 9685cf44&#45;b6e3&#45;4d8c&#45;9b51&#45;0b7891d01c75&#45;&gt;d75cfb47&#45;7d46&#45;4629&#45;83b0&#45;caca3ef6ff6b -->
<g id="edge1" class="edge">
<title>9685cf44&#45;b6e3&#45;4d8c&#45;9b51&#45;0b7891d01c75&#45;&gt;d75cfb47&#45;7d46&#45;4629&#45;83b0&#45;caca3ef6ff6b</title>
<path fill="none" stroke="black" stroke-dasharray="5,2" d="M203.01,-73.16C196.27,-64.04 188.69,-53.77 181.95,-44.65"/>
<polygon fill="black" stroke="black" points="184.56,-42.3 175.81,-36.34 178.93,-46.46 184.56,-42.3"/>
</g>
<!-- 356bb41d&#45;4dd1&#45;4c82&#45;9ac7&#45;86a35a5741ee -->
<g id="node5" class="node">
<title>356bb41d&#45;4dd1&#45;4c82&#45;9ac7&#45;86a35a5741ee</title>
<ellipse fill="white" stroke="black" cx="848" cy="-99.87" rx="84.71" ry="26.74"/>
<text text-anchor="middle" x="848" y="-103.67" font-family="Helvetica,sans-Serif" font-size="14.00">▶ Create</text>
<text text-anchor="middle" x="848" y="-88.67" font-family="Helvetica,sans-Serif" font-size="14.00">STAR_PBMC.sh</text>
</g>
<!-- e5c7aa98&#45;93c3&#45;4bfe&#45;ae0f&#45;870ad4aa2f6f&#45;&gt;356bb41d&#45;4dd1&#45;4c82&#45;9ac7&#45;86a35a5741ee -->
<g id="edge4" class="edge">
<title>e5c7aa98&#45;93c3&#45;4bfe&#45;ae0f&#45;870ad4aa2f6f&#45;&gt;356bb41d&#45;4dd1&#45;4c82&#45;9ac7&#45;86a35a5741ee</title>
<path fill="none" stroke="black" d="M607.32,-99.87C655.84,-99.87 704.37,-99.87 752.89,-99.87"/>
<polygon fill="black" stroke="black" points="752.92,-103.37 762.92,-99.87 752.92,-96.37 752.92,-103.37"/>
</g>
<!-- 5213cabd&#45;9c75&#45;47c7&#45;8d2d&#45;287c60e50586 -->
<g id="node12" class="node">
<title>5213cabd&#45;9c75&#45;47c7&#45;8d2d&#45;287c60e50586</title>
<polygon fill="white" stroke="black" points="674,-36 344,-36 344,0 674,0 674,-36"/>
<text text-anchor="middle" x="509" y="-14.3" font-family="Helvetica,sans-Serif" font-size="14.00">▶ Run GitHub Actions for `MultiQC_PBMC.sh`</text>
</g>
<!-- e5c7aa98&#45;93c3&#45;4bfe&#45;ae0f&#45;870ad4aa2f6f&#45;&gt;5213cabd&#45;9c75&#45;47c7&#45;8d2d&#45;287c60e50586 -->
<g id="edge3" class="edge">
<title>e5c7aa98&#45;93c3&#45;4bfe&#45;ae0f&#45;870ad4aa2f6f&#45;&gt;5213cabd&#45;9c75&#45;47c7&#45;8d2d&#45;287c60e50586</title>
<path fill="none" stroke="black" stroke-dasharray="5,2" d="M509,-72.72C509,-64.27 509,-54.89 509,-46.36"/>
<polygon fill="black" stroke="black" points="512.5,-46.15 509,-36.15 505.5,-46.15 512.5,-46.15"/>
</g>
<!-- 70ca3413&#45;9d2a&#45;43e0&#45;a292&#45;8237cf12c7e7 -->
<g id="node6" class="node">
<title>70ca3413&#45;9d2a&#45;43e0&#45;a292&#45;8237cf12c7e7</title>
<ellipse fill="white" stroke="black" cx="1179" cy="-99.87" rx="87.86" ry="26.74"/>
<text text-anchor="middle" x="1179" y="-103.67" font-family="Helvetica,sans-Serif" font-size="14.00">▶ Create</text>
<text text-anchor="middle" x="1179" y="-88.67" font-family="Helvetica,sans-Serif" font-size="14.00">RSEM_PBMC.sh</text>
</g>
<!-- 356bb41d&#45;4dd1&#45;4c82&#45;9ac7&#45;86a35a5741ee&#45;&gt;70ca3413&#45;9d2a&#45;43e0&#45;a292&#45;8237cf12c7e7 -->
<g id="edge6" class="edge">
<title>356bb41d&#45;4dd1&#45;4c82&#45;9ac7&#45;86a35a5741ee&#45;&gt;70ca3413&#45;9d2a&#45;43e0&#45;a292&#45;8237cf12c7e7</title>
<path fill="none" stroke="black" d="M933.01,-99.87C982.31,-99.87 1031.6,-99.87 1080.89,-99.87"/>
<polygon fill="black" stroke="black" points="1081.08,-103.37 1091.08,-99.87 1081.08,-96.37 1081.08,-103.37"/>
</g>
<!-- 1ff414d1&#45;c48e&#45;4cf7&#45;a38a&#45;993b01dc3d24 -->
<g id="node13" class="node">
<title>1ff414d1&#45;c48e&#45;4cf7&#45;a38a&#45;993b01dc3d24</title>
<polygon fill="white" stroke="black" points="1003.5,-36 692.5,-36 692.5,0 1003.5,0 1003.5,-36"/>
<text text-anchor="middle" x="848" y="-14.3" font-family="Helvetica,sans-Serif" font-size="14.00">▶ Run GitHub Actions for `STAR_PBMC.sh`</text>
</g>
<!-- 356bb41d&#45;4dd1&#45;4c82&#45;9ac7&#45;86a35a5741ee&#45;&gt;1ff414d1&#45;c48e&#45;4cf7&#45;a38a&#45;993b01dc3d24 -->
<g id="edge5" class="edge">
<title>356bb41d&#45;4dd1&#45;4c82&#45;9ac7&#45;86a35a5741ee&#45;&gt;1ff414d1&#45;c48e&#45;4cf7&#45;a38a&#45;993b01dc3d24</title>
<path fill="none" stroke="black" stroke-dasharray="5,2" d="M848,-72.72C848,-64.27 848,-54.89 848,-46.36"/>
<polygon fill="black" stroke="black" points="851.5,-46.15 848,-36.15 844.5,-46.15 851.5,-46.15"/>
</g>
<!-- bc4e3226&#45;0010&#45;4bcd&#45;b8df&#45;1887e1ccb47c -->
<g id="node7" class="node">
<title>bc4e3226&#45;0010&#45;4bcd&#45;b8df&#45;1887e1ccb47c</title>
<ellipse fill="white" stroke="black" cx="1524" cy="-99.87" rx="103.48" ry="26.74"/>
<text text-anchor="middle" x="1524" y="-103.67" font-family="Helvetica,sans-Serif" font-size="14.00">▶ Create</text>
<text text-anchor="middle" x="1524" y="-88.67" font-family="Helvetica,sans-Serif" font-size="14.00">samtools_PBMC.sh</text>
</g>
<!-- 70ca3413&#45;9d2a&#45;43e0&#45;a292&#45;8237cf12c7e7&#45;&gt;bc4e3226&#45;0010&#45;4bcd&#45;b8df&#45;1887e1ccb47c -->
<g id="edge8" class="edge">
<title>70ca3413&#45;9d2a&#45;43e0&#45;a292&#45;8237cf12c7e7&#45;&gt;bc4e3226&#45;0010&#45;4bcd&#45;b8df&#45;1887e1ccb47c</title>
<path fill="none" stroke="black" d="M1266.93,-99.87C1314.75,-99.87 1362.56,-99.87 1410.37,-99.87"/>
<polygon fill="black" stroke="black" points="1410.57,-103.37 1420.57,-99.87 1410.57,-96.37 1410.57,-103.37"/>
</g>
<!-- 3f9ae9b8&#45;16bc&#45;4301&#45;81fc&#45;1349388907d5 -->
<g id="node14" class="node">
<title>3f9ae9b8&#45;16bc&#45;4301&#45;81fc&#45;1349388907d5</title>
<polygon fill="white" stroke="black" points="1336.5,-36 1021.5,-36 1021.5,0 1336.5,0 1336.5,-36"/>
<text text-anchor="middle" x="1179" y="-14.3" font-family="Helvetica,sans-Serif" font-size="14.00">▶ Run GitHub Actions for `RSEM_PBMC.sh`</text>
</g>
<!-- 70ca3413&#45;9d2a&#45;43e0&#45;a292&#45;8237cf12c7e7&#45;&gt;3f9ae9b8&#45;16bc&#45;4301&#45;81fc&#45;1349388907d5 -->
<g id="edge7" class="edge">
<title>70ca3413&#45;9d2a&#45;43e0&#45;a292&#45;8237cf12c7e7&#45;&gt;3f9ae9b8&#45;16bc&#45;4301&#45;81fc&#45;1349388907d5</title>
<path fill="none" stroke="black" stroke-dasharray="5,2" d="M1179,-72.72C1179,-64.27 1179,-54.89 1179,-46.36"/>
<polygon fill="black" stroke="black" points="1182.5,-46.15 1179,-36.15 1175.5,-46.15 1182.5,-46.15"/>
</g>
<!-- 5f4222fe&#45;85af&#45;4d0d&#45;817d&#45;cb426489950b -->
<g id="node8" class="node">
<title>5f4222fe&#45;85af&#45;4d0d&#45;817d&#45;cb426489950b</title>
<ellipse fill="white" stroke="black" cx="1873" cy="-99.87" rx="93.18" ry="26.74"/>
<text text-anchor="middle" x="1873" y="-103.67" font-family="Helvetica,sans-Serif" font-size="14.00">▶ Create</text>
<text text-anchor="middle" x="1873" y="-88.67" font-family="Helvetica,sans-Serif" font-size="14.00">DESeq2_PBMC.R</text>
</g>
<!-- bc4e3226&#45;0010&#45;4bcd&#45;b8df&#45;1887e1ccb47c&#45;&gt;5f4222fe&#45;85af&#45;4d0d&#45;817d&#45;cb426489950b -->
<g id="edge10" class="edge">
<title>bc4e3226&#45;0010&#45;4bcd&#45;b8df&#45;1887e1ccb47c&#45;&gt;5f4222fe&#45;85af&#45;4d0d&#45;817d&#45;cb426489950b</title>
<path fill="none" stroke="black" d="M1627.27,-99.87C1674.61,-99.87 1721.96,-99.87 1769.31,-99.87"/>
<polygon fill="black" stroke="black" points="1769.41,-103.37 1779.41,-99.87 1769.41,-96.37 1769.41,-103.37"/>
</g>
<!-- 31e04957&#45;769c&#45;4313&#45;a755&#45;684e72fd645b -->
<g id="node15" class="node">
<title>31e04957&#45;769c&#45;4313&#45;a755&#45;684e72fd645b</title>
<polygon fill="white" stroke="black" points="1693,-36 1355,-36 1355,0 1693,0 1693,-36"/>
<text text-anchor="middle" x="1524" y="-14.3" font-family="Helvetica,sans-Serif" font-size="14.00">▶ Run GitHub Actions for `samtools_PBMC.sh`</text>
</g>
<!-- bc4e3226&#45;0010&#45;4bcd&#45;b8df&#45;1887e1ccb47c&#45;&gt;31e04957&#45;769c&#45;4313&#45;a755&#45;684e72fd645b -->
<g id="edge9" class="edge">
<title>bc4e3226&#45;0010&#45;4bcd&#45;b8df&#45;1887e1ccb47c&#45;&gt;31e04957&#45;769c&#45;4313&#45;a755&#45;684e72fd645b</title>
<path fill="none" stroke="black" stroke-dasharray="5,2" d="M1524,-72.72C1524,-64.27 1524,-54.89 1524,-46.36"/>
<polygon fill="black" stroke="black" points="1527.5,-46.15 1524,-36.15 1520.5,-46.15 1527.5,-46.15"/>
</g>
<!-- 86363855&#45;ebfd&#45;48b6&#45;b24c&#45;215a5eee2587 -->
<g id="node9" class="node">
<title>86363855&#45;ebfd&#45;48b6&#45;b24c&#45;215a5eee2587</title>
<ellipse fill="white" stroke="black" cx="2184" cy="-99.87" rx="54.39" ry="26.74"/>
<text text-anchor="middle" x="2184" y="-103.67" font-family="Helvetica,sans-Serif" font-size="14.00">▶ Modify</text>
<text text-anchor="middle" x="2184" y="-88.67" font-family="Helvetica,sans-Serif" font-size="14.00">main.sh</text>
</g>
<!-- 5f4222fe&#45;85af&#45;4d0d&#45;817d&#45;cb426489950b&#45;&gt;86363855&#45;ebfd&#45;48b6&#45;b24c&#45;215a5eee2587 -->
<g id="edge12" class="edge">
<title>5f4222fe&#45;85af&#45;4d0d&#45;817d&#45;cb426489950b&#45;&gt;86363855&#45;ebfd&#45;48b6&#45;b24c&#45;215a5eee2587</title>
<path fill="none" stroke="black" d="M1966.54,-99.87C2017.38,-99.87 2068.21,-99.87 2119.04,-99.87"/>
<polygon fill="black" stroke="black" points="2119.21,-103.37 2129.21,-99.87 2119.21,-96.37 2119.21,-103.37"/>
</g>
<!-- cd67892d&#45;acdf&#45;4e24&#45;b865&#45;964b3a4cb0b2 -->
<g id="node16" class="node">
<title>cd67892d&#45;acdf&#45;4e24&#45;b865&#45;964b3a4cb0b2</title>
<polygon fill="white" stroke="black" points="2034.5,-36 1711.5,-36 1711.5,0 2034.5,0 2034.5,-36"/>
<text text-anchor="middle" x="1873" y="-14.3" font-family="Helvetica,sans-Serif" font-size="14.00">▶ Run GitHub Actions for `DESeq2_PBMC.R`</text>
</g>
<!-- 5f4222fe&#45;85af&#45;4d0d&#45;817d&#45;cb426489950b&#45;&gt;cd67892d&#45;acdf&#45;4e24&#45;b865&#45;964b3a4cb0b2 -->
<g id="edge11" class="edge">
<title>5f4222fe&#45;85af&#45;4d0d&#45;817d&#45;cb426489950b&#45;&gt;cd67892d&#45;acdf&#45;4e24&#45;b865&#45;964b3a4cb0b2</title>
<path fill="none" stroke="black" stroke-dasharray="5,2" d="M1873,-72.72C1873,-64.27 1873,-54.89 1873,-46.36"/>
<polygon fill="black" stroke="black" points="1876.5,-46.15 1873,-36.15 1869.5,-46.15 1876.5,-46.15"/>
</g>
<!-- ef77dad3&#45;4595&#45;4f89&#45;8eac&#45;b91c990d9fe8 -->
<g id="node10" class="node">
<title>ef77dad3&#45;4595&#45;4f89&#45;8eac&#45;b91c990d9fe8</title>
<ellipse fill="white" stroke="black" cx="2404" cy="-99.87" rx="60.62" ry="26.74"/>
<text text-anchor="middle" x="2404" y="-103.67" font-family="Helvetica,sans-Serif" font-size="14.00">▶ Modify</text>
<text text-anchor="middle" x="2404" y="-88.67" font-family="Helvetica,sans-Serif" font-size="14.00">DESeq2.R</text>
</g>
<!-- 86363855&#45;ebfd&#45;48b6&#45;b24c&#45;215a5eee2587&#45;&gt;ef77dad3&#45;4595&#45;4f89&#45;8eac&#45;b91c990d9fe8 -->
<g id="edge14" class="edge">
<title>86363855&#45;ebfd&#45;48b6&#45;b24c&#45;215a5eee2587&#45;&gt;ef77dad3&#45;4595&#45;4f89&#45;8eac&#45;b91c990d9fe8</title>
<path fill="none" stroke="black" d="M2238.57,-99.87C2269.96,-99.87 2301.35,-99.87 2332.74,-99.87"/>
<polygon fill="black" stroke="black" points="2332.93,-103.37 2342.93,-99.87 2332.93,-96.37 2332.93,-103.37"/>
</g>
<!-- ef18db67&#45;81da&#45;4803&#45;947c&#45;99751197dce5 -->
<g id="node17" class="node">
<title>ef18db67&#45;81da&#45;4803&#45;947c&#45;99751197dce5</title>
<polygon fill="white" stroke="black" points="2315.5,-36 2052.5,-36 2052.5,0 2315.5,0 2315.5,-36"/>
<text text-anchor="middle" x="2184" y="-14.3" font-family="Helvetica,sans-Serif" font-size="14.00">▶ Run GitHub Actions for `main.sh`</text>
</g>
<!-- 86363855&#45;ebfd&#45;48b6&#45;b24c&#45;215a5eee2587&#45;&gt;ef18db67&#45;81da&#45;4803&#45;947c&#45;99751197dce5 -->
<g id="edge13" class="edge">
<title>86363855&#45;ebfd&#45;48b6&#45;b24c&#45;215a5eee2587&#45;&gt;ef18db67&#45;81da&#45;4803&#45;947c&#45;99751197dce5</title>
<path fill="none" stroke="black" stroke-dasharray="5,2" d="M2184,-72.72C2184,-64.27 2184,-54.89 2184,-46.36"/>
<polygon fill="black" stroke="black" points="2187.5,-46.15 2184,-36.15 2180.5,-46.15 2187.5,-46.15"/>
</g>
<!-- ef77dad3&#45;4595&#45;4f89&#45;8eac&#45;b91c990d9fe8&#45;&gt;end -->
<g id="edge17" class="edge">
<title>ef77dad3&#45;4595&#45;4f89&#45;8eac&#45;b91c990d9fe8&#45;&gt;end</title>
<path fill="none" stroke="black" d="M2464.89,-99.87C2483.14,-99.87 2501.2,-99.87 2512.23,-99.87"/>
<polygon fill="black" stroke="black" points="2512.26,-103.37 2522.26,-99.87 2512.26,-96.37 2512.26,-103.37"/>
<text text-anchor="middle" x="2493.66" y="-106.67" font-family="Helvetica,sans-Serif" font-size="14.00">Finish</text>
</g>
<!-- c5029730&#45;15b6&#45;4d08&#45;814f&#45;9ed342e85bcd -->
<g id="node18" class="node">
<title>c5029730&#45;15b6&#45;4d08&#45;814f&#45;9ed342e85bcd</title>
<polygon fill="white" stroke="black" points="2610.5,-36 2333.5,-36 2333.5,0 2610.5,0 2610.5,-36"/>
<text text-anchor="middle" x="2472" y="-14.3" font-family="Helvetica,sans-Serif" font-size="14.00">▶ Run GitHub Actions for `DESeq2.R`</text>
</g>
<!-- ef77dad3&#45;4595&#45;4f89&#45;8eac&#45;b91c990d9fe8&#45;&gt;c5029730&#45;15b6&#45;4d08&#45;814f&#45;9ed342e85bcd -->
<g id="edge15" class="edge">
<title>ef77dad3&#45;4595&#45;4f89&#45;8eac&#45;b91c990d9fe8&#45;&gt;c5029730&#45;15b6&#45;4d08&#45;814f&#45;9ed342e85bcd</title>
<path fill="none" stroke="black" stroke-dasharray="5,2" d="M2424.77,-74.47C2433.01,-64.8 2442.48,-53.68 2450.76,-43.95"/>
<polygon fill="black" stroke="black" points="2453.57,-46.04 2457.39,-36.16 2448.24,-41.51 2453.57,-46.04"/>
</g>
</g>
</svg>
